<svg width="206" height="82" viewBox="0 0 206 82" fill="none" xmlns="http://www.w3.org/2000/svg">
<rect x="6" y="6.12701" width="200" height="67.6762" rx="20" fill="black" fill-opacity="0.3"/>
<g filter="url(#filter0_d_381_19399)">
<rect x="6" y="6.12701" width="141" height="67.6762" rx="20" fill="#C4C4C4"/>
<rect x="6.5" y="6.62701" width="140" height="66.6762" rx="19.5" stroke="#5D4D5C"/>
</g>
<g filter="url(#filter1_d_381_19399)">
<path d="M55.083 40.0051H52.4023V38.152H55.083C55.4785 38.152 55.7959 38.0861 56.0352 37.9543C56.2793 37.8224 56.4575 37.6418 56.5698 37.4123C56.687 37.1779 56.7456 36.9142 56.7456 36.6213C56.7456 36.3185 56.687 36.0378 56.5698 35.779C56.4575 35.5153 56.2793 35.3029 56.0352 35.1418C55.7959 34.9807 55.4785 34.9001 55.083 34.9001H53.2666V43.7111H50.8789V33.0471H55.083C55.9326 33.0471 56.6602 33.2009 57.2656 33.5085C57.876 33.8161 58.3423 34.2385 58.6646 34.7756C58.9917 35.3078 59.1553 35.9182 59.1553 36.6066C59.1553 37.2951 58.9917 37.8932 58.6646 38.4011C58.3423 38.9089 57.876 39.3044 57.2656 39.5876C56.6602 39.8659 55.9326 40.0051 55.083 40.0051ZM62.312 33.0471L64.3994 37.7932L66.5015 33.0471H69.0796L65.6152 39.8586V43.7111H63.1909V39.8586L59.7192 33.0471H62.312ZM75.0635 33.0471V43.7111H72.6831V33.0471H75.0635ZM78.3081 33.0471V34.9001H69.5044V33.0471H78.3081ZM86.6431 37.3391V39.1848H81.1206V37.3391H86.6431ZM81.875 33.0471V43.7111H79.4873V33.0471H81.875ZM88.291 33.0471V43.7111H85.9106V33.0471H88.291ZM98.9551 38.1447V38.6208C98.9551 39.4313 98.8428 40.1589 98.6182 40.8034C98.3984 41.4479 98.0835 41.9973 97.6733 42.4514C97.2681 42.9055 96.7847 43.2546 96.2231 43.4987C95.6665 43.738 95.0488 43.8576 94.3701 43.8576C93.6914 43.8576 93.0713 43.738 92.5098 43.4987C91.9482 43.2546 91.46 42.9055 91.0449 42.4514C90.6348 41.9973 90.3174 41.4479 90.0928 40.8034C89.8682 40.1589 89.7559 39.4313 89.7559 38.6208V38.1447C89.7559 37.3342 89.8682 36.6066 90.0928 35.9621C90.3174 35.3127 90.6323 34.7609 91.0376 34.3068C91.4478 33.8527 91.9336 33.506 92.4951 33.2668C93.0566 33.0226 93.6768 32.9006 94.3555 32.9006C95.0342 32.9006 95.6543 33.0226 96.2158 33.2668C96.7773 33.506 97.2607 33.8527 97.666 34.3068C98.0762 34.7609 98.3936 35.3127 98.6182 35.9621C98.8428 36.6066 98.9551 37.3342 98.9551 38.1447ZM96.5454 38.6208V38.1301C96.5454 37.5881 96.4966 37.1096 96.3989 36.6945C96.3013 36.2746 96.1597 35.923 95.9741 35.6398C95.7886 35.3566 95.5591 35.1442 95.2856 35.0026C95.0122 34.8561 94.7021 34.7829 94.3555 34.7829C93.9941 34.7829 93.6792 34.8561 93.4106 35.0026C93.1421 35.1442 92.915 35.3566 92.7295 35.6398C92.5488 35.923 92.4097 36.2746 92.312 36.6945C92.2192 37.1096 92.1729 37.5881 92.1729 38.1301V38.6208C92.1729 39.1579 92.2192 39.6364 92.312 40.0563C92.4097 40.4714 92.5513 40.8229 92.7368 41.111C92.9224 41.3991 93.1494 41.6164 93.418 41.7629C93.6914 41.9094 94.0088 41.9826 94.3701 41.9826C94.7168 41.9826 95.0244 41.9094 95.293 41.7629C95.5664 41.6164 95.7959 41.3991 95.9814 41.111C96.167 40.8229 96.3062 40.4714 96.3989 40.0563C96.4966 39.6364 96.5454 39.1579 96.5454 38.6208ZM109.216 33.0471V43.7111H106.836L102.808 36.819V43.7111H100.42V33.0471H102.808L106.843 39.9391V33.0471H109.216Z" fill="white"/>
</g>
<ellipse cx="175.776" cy="38.427" rx="26.7763" ry="28.1984" fill="#5D4D5C"/>
<path d="M192.495 33.1671C191.885 31.0687 190.73 29.4864 188.268 29.4864H185.094V32.7053C185.094 35.2044 182.625 37.3096 179.807 37.3096H171.354C169.042 37.3096 167.127 39.0074 167.127 40.9971V47.9103C167.127 49.8797 169.122 51.0342 171.354 51.5978C174.029 52.2701 176.601 52.3924 179.807 51.5978C181.936 51.0681 184.033 50.0019 184.033 47.9103V45.1464H175.588V44.2228H188.268C190.73 44.2228 191.64 42.7492 192.495 40.5421C193.381 38.2671 193.342 36.0805 192.495 33.1671ZM180.337 46.9868C181.216 46.9868 181.928 47.6047 181.928 48.3653C181.928 49.1327 181.216 49.7507 180.337 49.7507C179.466 49.7507 178.746 49.1259 178.746 48.3653C178.754 47.5979 179.466 46.9868 180.337 46.9868ZM170.966 36.3996H179.419C181.77 36.3996 183.646 34.7358 183.646 32.7121V25.7921C183.646 23.8227 181.714 22.3491 179.419 22.0163C176.585 21.6157 173.506 21.636 170.966 22.0231C167.388 22.5664 166.739 23.7005 166.739 25.7989V28.5628H175.2V29.4864H163.565C161.104 29.4864 158.951 30.7563 158.278 33.1671C157.502 35.9311 157.471 37.656 158.278 40.5421C158.879 42.6881 160.312 44.2228 162.774 44.2228H165.678V40.9088C165.678 38.5116 168.093 36.3996 170.966 36.3996ZM170.435 26.7157C169.557 26.7157 168.844 26.0977 168.844 25.3371C168.852 24.5697 169.557 23.9518 170.435 23.9518C171.306 23.9518 172.026 24.5765 172.026 25.3371C172.026 26.0977 171.314 26.7157 170.435 26.7157Z" fill="white"/>
<path d="M192.495 33.1671C191.885 31.0687 190.73 29.4864 188.268 29.4864H185.094V32.7053C185.094 35.2044 182.625 37.3096 179.807 37.3096H171.354C169.042 37.3096 167.127 39.0074 167.127 40.9971V47.9103C167.127 49.8797 169.122 51.0342 171.354 51.5978C174.029 52.2701 176.601 52.3924 179.807 51.5978C181.936 51.0681 184.033 50.0019 184.033 47.9103V45.1464H175.588V44.2228H188.268C190.73 44.2228 191.64 42.7492 192.495 40.5421C193.381 38.2671 193.342 36.0805 192.495 33.1671ZM180.337 46.9868C181.216 46.9868 181.928 47.6047 181.928 48.3653C181.928 49.1327 181.216 49.7507 180.337 49.7507C179.466 49.7507 178.746 49.1259 178.746 48.3653C178.754 47.5979 179.466 46.9868 180.337 46.9868ZM170.966 36.3996H179.419C181.77 36.3996 183.646 34.7358 183.646 32.7121V25.7921C183.646 23.8227 181.714 22.3491 179.419 22.0163C176.585 21.6157 173.506 21.636 170.966 22.0231C167.388 22.5664 166.739 23.7005 166.739 25.7989V28.5628H175.2V29.4864H163.565C161.104 29.4864 158.951 30.7563 158.278 33.1671C157.502 35.9311 157.471 37.656 158.278 40.5421C158.879 42.6881 160.312 44.2228 162.774 44.2228H165.678V40.9088C165.678 38.5116 168.093 36.3996 170.966 36.3996ZM170.435 26.7157C169.557 26.7157 168.844 26.0977 168.844 25.3371C168.852 24.5697 169.557 23.9518 170.435 23.9518C171.306 23.9518 172.026 24.5765 172.026 25.3371C172.026 26.0977 171.314 26.7157 170.435 26.7157Z" stroke="#5D4D5C"/>
<defs>
<filter id="filter0_d_381_19399" x="0" y="0.127014" width="155" height="81.6762" filterUnits="userSpaceOnUse" color-interpolation-filters="sRGB">
<feFlood flood-opacity="0" result="BackgroundImageFix"/>
<feColorMatrix in="SourceAlpha" type="matrix" values="0 0 0 0 0 0 0 0 0 0 0 0 0 0 0 0 0 0 127 0" result="hardAlpha"/>
<feMorphology radius="3" operator="dilate" in="SourceAlpha" result="effect1_dropShadow_381_19399"/>
<feOffset dx="1" dy="1"/>
<feGaussianBlur stdDeviation="2"/>
<feComposite in2="hardAlpha" operator="out"/>
<feColorMatrix type="matrix" values="0 0 0 0 0 0 0 0 0 0 0 0 0 0 0 0 0 0 0.15 0"/>
<feBlend mode="normal" in2="BackgroundImageFix" result="effect1_dropShadow_381_19399"/>
<feBlend mode="normal" in="SourceGraphic" in2="effect1_dropShadow_381_19399" result="shape"/>
</filter>
<filter id="filter1_d_381_19399" x="46.8789" y="32.9006" width="66.3374" height="18.957" filterUnits="userSpaceOnUse" color-interpolation-filters="sRGB">
<feFlood flood-opacity="0" result="BackgroundImageFix"/>
<feColorMatrix in="SourceAlpha" type="matrix" values="0 0 0 0 0 0 0 0 0 0 0 0 0 0 0 0 0 0 127 0" result="hardAlpha"/>
<feOffset dy="4"/>
<feGaussianBlur stdDeviation="2"/>
<feComposite in2="hardAlpha" operator="out"/>
<feColorMatrix type="matrix" values="0 0 0 0 0 0 0 0 0 0 0 0 0 0 0 0 0 0 0.25 0"/>
<feBlend mode="normal" in2="BackgroundImageFix" result="effect1_dropShadow_381_19399"/>
<feBlend mode="normal" in="SourceGraphic" in2="effect1_dropShadow_381_19399" result="shape"/>
</filter>
</defs>
</svg>
